<svg width="24" height="24" viewBox="0 0 24 24" fill="none" xmlns="http://www.w3.org/2000/svg">
<g clip-path="url(#clip0_4011_1518)">
<path fill-rule="evenodd" clip-rule="evenodd" d="M14.9265 3.69921C15.0065 3.27234 15.3932 2.9728 15.8265 3.00196C17.4922 3.11409 18.5844 3.28974 19.2756 3.4445C19.6215 3.522 19.8693 3.59472 20.0395 3.65256C20.1247 3.68152 20.1907 3.70686 20.2402 3.72732C20.2651 3.73758 20.2858 3.74661 20.3028 3.75432L20.3254 3.76483L20.3347 3.76931L20.3388 3.77135L20.3407 3.77231L20.3417 3.77279C20.3422 3.77301 20.3426 3.77325 19.9593 4.5399L20.3417 3.77279C20.4753 3.83949 20.5898 3.94032 20.6724 4.06444C21.5484 5.37837 22.3731 7.55826 22.9783 9.91836C23.5881 12.2961 24.0002 14.9563 24.0002 17.2746C24.0002 17.4438 23.9501 17.6093 23.8562 17.7502C23.1969 18.739 21.1416 20.6185 17.7396 21.2989C17.4254 21.3616 17.1024 21.244 16.9022 20.9938L14.4317 17.9058C13.6777 18.0479 12.8554 18.1318 12.0001 18.1318C11.1448 18.1318 10.3225 18.0479 9.56837 17.9058L7.09791 20.9938C6.89774 21.244 6.57471 21.3616 6.2605 21.2989C2.85845 20.6185 0.803227 18.739 0.143957 17.7502C0.0500897 17.6093 0 17.4438 0 17.2746C0 14.9563 0.412073 12.2961 1.02176 9.91836C1.62692 7.55826 2.4517 5.37837 3.32765 4.06444C3.41038 3.94032 3.52409 3.83995 3.65751 3.77325L4.04083 4.5399C3.65751 3.77325 3.65798 3.77301 3.65844 3.77279L3.65938 3.77231L3.66132 3.77135L3.66547 3.76931L3.67474 3.76483L3.69737 3.75432C3.71431 3.74661 3.73502 3.73758 3.75982 3.72732C3.80942 3.70686 3.87552 3.68152 3.9607 3.65256C4.13088 3.59472 4.37849 3.522 4.72454 3.44452C5.4157 3.28974 6.50789 3.11409 8.17347 3.00198C8.60681 2.9728 8.99347 3.27235 9.07351 3.69921L9.28279 4.81542H14.7172L14.9265 3.69921ZM7.90598 9.3976C6.95919 9.3976 6.19169 10.1651 6.19169 11.1119C6.19169 12.0587 6.95919 12.8262 7.90598 12.8262C8.85274 12.8262 9.62026 12.0587 9.62026 11.1119C9.62026 10.1651 8.85274 9.3976 7.90598 9.3976ZM13.906 11.1119C13.906 10.1651 14.6735 9.3976 15.6203 9.3976C16.567 9.3976 17.3345 10.1651 17.3345 11.1119C17.3345 12.0587 16.567 12.8262 15.6203 12.8262C14.6735 12.8262 13.906 12.0587 13.906 11.1119ZM7.03466 15.0765C6.69993 14.7418 6.15722 14.7418 5.82249 15.0765C5.48774 15.4113 5.48774 15.954 5.82249 16.2887C6.47573 16.942 7.67959 17.4743 9.03273 17.7923C9.92589 18.0022 10.9375 18.1318 12.0001 18.1318C13.0626 18.1318 14.0742 18.0022 14.9673 17.7923C16.3205 17.4743 17.5243 16.942 18.1776 16.2887C18.5124 15.954 18.5124 15.4113 18.1776 15.0765C17.8428 14.7418 17.3001 14.7418 16.9654 15.0765C16.6483 15.3936 15.8171 15.8316 14.5752 16.1235C13.8063 16.3041 12.9263 16.4173 12 16.4173C11.0738 16.4173 10.1937 16.3041 9.42487 16.1235C8.18301 15.8316 7.35178 15.3936 7.03466 15.0765Z" fill="white"/>
</g>
<defs>
<clipPath id="clip0_4011_1518">
<rect width="24" height="24" fill="white"/>
</clipPath>
</defs>
</svg>
