<svg width="103" height="48" viewBox="0 0 103 48" fill="none" xmlns="http://www.w3.org/2000/svg">
<path fill-rule="evenodd" clip-rule="evenodd" d="M30.7794 20.0214V20.019L30.78 20.0196L20.2212 7.1094C19.8528 6.6594 19.164 6.6594 18.7956 7.1094L16.6962 9.6768C16.0542 10.47 15.2982 11.7882 14.79 13.3614C14.2818 14.9352 14.0184 16.7724 14.3724 18.6018C14.9202 21.4302 17.0064 23.9202 20.6508 25.9878C26.0478 29.058 29.3274 32.85 30.3336 37.272C30.3864 37.506 30.4326 37.7388 30.4716 37.9686L30.5172 38.2392L30.6906 38.0262C32.7018 35.5542 33.9072 32.3514 33.9072 28.9692C33.9072 25.587 32.7366 22.4766 30.7794 20.0214ZM34.1004 17.4528V17.454H34.0992L34.1454 17.511C36.735 20.7246 38.2848 24.8082 38.2848 29.2536C38.2848 39.6066 29.8782 48 19.5078 48C9.13737 48 0.730774 39.6066 0.730774 29.2536C0.730774 24.8082 2.28057 20.7246 4.86957 17.5116L4.91517 17.4546V17.4534L18.9876 0.2466C19.2564 -0.0822 19.7592 -0.0822 20.028 0.2466L34.1004 17.4528ZM9.54177 18.4236L8.28297 19.9632L8.28237 19.9638C6.29637 22.428 5.10777 25.5606 5.10777 28.9692C5.10777 36.909 11.5548 43.3452 19.5072 43.3452C21.7746 43.3452 23.9202 42.822 25.8282 41.8896L25.8894 41.8596L25.8972 41.7924C26.025 40.7028 25.9722 39.4566 25.6764 38.19C24.9672 35.1552 22.5054 32.388 18.2772 29.982C13.413 27.2226 10.5036 23.6598 9.68937 19.3866C9.64617 19.1592 9.60957 18.933 9.57957 18.708L9.54177 18.4236ZM90.7418 10.5703C91.4546 10.5703 92.072 10.8157 92.5802 11.3029V11.3017C93.0986 11.7895 93.3644 12.3859 93.3644 13.0789C93.3644 13.7719 93.0986 14.3689 92.5802 14.8561C92.072 15.3433 91.4546 15.5887 90.7418 15.5887C90.029 15.5887 89.4074 15.3439 88.8896 14.8573L88.8878 14.8555C88.379 14.3677 88.1192 13.7707 88.1192 13.0795C88.1192 12.3883 88.379 11.7919 88.8878 11.3035L88.8896 11.3017C89.4074 10.8157 90.029 10.5703 90.7418 10.5703ZM59.8532 25.4239C60.806 25.7797 61.715 26.2657 62.579 26.8801L62.5796 26.8819C63.467 27.4963 64.1972 28.2859 64.7702 29.2471C65.354 30.2269 65.639 31.4179 65.639 32.8081C65.639 34.4179 65.2166 35.8783 64.37 37.1821C63.5312 38.4889 62.306 39.5209 60.707 40.2817C59.111 41.0455 57.1832 41.4223 54.9332 41.4223C52.8344 41.4223 51.0044 41.0833 49.4492 40.3975C47.9066 39.7129 46.6826 38.7541 45.7868 37.5181V37.5169C44.9012 36.2803 44.4014 34.8457 44.2856 33.2209L44.2664 32.9545H48.3794L48.3992 33.1819C48.4892 34.2283 48.839 35.0791 49.4378 35.7493C50.0576 36.4219 50.8406 36.9277 51.794 37.2637C52.7642 37.5931 53.8106 37.7587 54.9344 37.7587C56.2442 37.7587 57.4124 37.5463 58.4426 37.1275C59.4734 36.6985 60.2804 36.1099 60.872 35.3659C61.457 34.6207 61.7504 33.7525 61.7504 32.7505C61.7504 31.8385 61.4972 31.1191 61.0082 30.5701C60.4994 29.9989 59.825 29.5285 58.976 29.1637C58.1114 28.7917 57.1754 28.4653 56.1674 28.1851H56.1656L52.6046 27.1675C50.318 26.5099 48.4904 25.5667 47.1356 24.3283C45.7604 23.0707 45.0764 21.4237 45.0764 19.4107C45.0764 17.7421 45.5282 16.2769 46.4378 15.0247C47.3504 13.7719 48.5732 12.8035 50.0972 12.1183C51.6308 11.4241 53.3204 11.0791 55.2158 11.0791C57.1112 11.0791 58.8056 11.4193 60.2936 12.1051C61.778 12.7801 62.9618 13.7095 63.8378 14.8963C64.7258 16.0867 65.1944 17.4409 65.243 18.9505L65.2514 19.2073H61.382L61.3562 18.9877C61.1954 17.6293 60.548 16.5829 59.4038 15.8317C58.2464 15.0727 56.8172 14.6857 55.103 14.6857C53.8484 14.6857 52.7624 14.8885 51.839 15.2869C50.9216 15.6865 50.2148 16.2313 49.7078 16.9159C49.2122 17.5969 48.9644 18.3697 48.9644 19.2415C48.9644 19.9723 49.1372 20.5861 49.4726 21.0949C49.829 21.6109 50.2832 22.0435 50.8388 22.3933C51.4082 22.7419 52.0052 23.0311 52.6292 23.2609C53.264 23.4847 53.846 23.6659 54.3746 23.8057H54.3758L57.3134 24.5965H57.314C58.0778 24.7969 58.9244 25.0729 59.8532 25.4239ZM88.7972 18.7099H92.6294V40.9123H88.7972V18.7099ZM80.8946 34.9987C81.4532 34.1743 81.7418 33.1099 81.7418 31.7893V18.7105H85.574V40.9129H81.7418V37.5817C81.218 38.5165 80.4806 39.3241 79.5356 40.0039L79.5344 40.0051C78.4094 40.8043 76.9988 41.1955 75.3206 41.1955C73.9268 41.1955 72.6776 40.8907 71.5814 40.2727H71.5796C70.4774 39.6427 69.6158 38.6995 68.9936 37.4539C68.3684 36.1939 68.063 34.6219 68.063 32.7505V18.7099H71.8952V32.5243C71.8952 34.0585 72.323 35.2543 73.1558 36.1405C74 37.0297 75.0734 37.4761 76.3946 37.4761C77.18 37.4761 77.9858 37.2751 78.8138 36.8653H78.815C79.6382 36.4621 80.3312 35.8435 80.8934 35.0005L80.8946 34.9987ZM96.6249 38.0783C96.6249 39.5471 97.7331 40.5527 99.1131 40.5527C100.493 40.5527 101.594 39.5471 101.594 38.0783C101.594 36.6095 100.486 35.5835 99.1131 35.5835C97.7397 35.5835 96.6249 36.5957 96.6249 38.0783ZM97.1163 38.0783C97.1163 36.8477 97.9983 36.0269 99.1131 36.0269C100.228 36.0269 101.103 36.8477 101.103 38.0783C101.103 39.3089 100.248 40.1099 99.1131 40.1099C97.9785 40.1099 97.1163 39.2963 97.1163 38.0783ZM99.7299 39.3023H100.334L99.7233 38.1839C100.062 38.0315 100.201 37.7735 100.201 37.4825C100.201 36.8009 99.7299 36.6623 98.9541 36.6623H98.1447V39.3023H98.6883V38.2967H99.1929L99.7299 39.3023ZM99.6573 37.4897C99.657 37.7474 99.4908 37.8797 99.0735 37.8797H98.6883V37.0925H99.0399C99.4119 37.0925 99.6573 37.1717 99.6573 37.4897Z" fill="white"/>
</svg>
