<svg width="24" height="24" viewBox="0 0 24 24" fill="none" xmlns="http://www.w3.org/2000/svg">
<path d="M20.1328 19.8478L14.264 10.6247L20.0549 4.25438C20.1859 4.10674 20.2534 3.91343 20.2428 3.71636C20.2322 3.51929 20.1444 3.33435 19.9983 3.20161C19.8523 3.06888 19.6598 2.99907 19.4626 3.00731C19.2654 3.01555 19.0794 3.10117 18.9449 3.24562L13.4287 9.31312L9.63276 3.34781C9.56507 3.24127 9.47158 3.15353 9.36097 3.09274C9.25035 3.03194 9.12617 3.00004 8.99994 3H4.49994C4.36547 2.99993 4.23345 3.03603 4.11771 3.10449C4.00198 3.17296 3.90677 3.27129 3.84208 3.38918C3.77738 3.50707 3.74558 3.64018 3.74998 3.77458C3.75439 3.90898 3.79485 4.03973 3.86713 4.15313L9.73588 13.3753L3.94494 19.7503C3.87732 19.823 3.82479 19.9083 3.79039 20.0014C3.75599 20.0945 3.74041 20.1935 3.74455 20.2927C3.74869 20.3918 3.77248 20.4892 3.81452 20.5791C3.85657 20.669 3.91604 20.7496 3.98949 20.8164C4.06293 20.8831 4.1489 20.9346 4.2424 20.9679C4.3359 21.0012 4.43508 21.0156 4.53419 21.0103C4.63329 21.0049 4.73035 20.98 4.81974 20.9369C4.90914 20.8937 4.98908 20.8333 5.05494 20.7591L10.5712 14.6916L14.3671 20.6569C14.4354 20.7625 14.5291 20.8494 14.6397 20.9093C14.7503 20.9693 14.8742 21.0005 14.9999 21H19.4999C19.6343 21 19.7661 20.9638 19.8817 20.8954C19.9973 20.827 20.0924 20.7288 20.1571 20.611C20.2218 20.4933 20.2536 20.3604 20.2493 20.2261C20.2451 20.0918 20.2048 19.9612 20.1328 19.8478ZM15.4115 19.5L5.86588 4.5H8.58463L18.134 19.5H15.4115Z" fill="white"/>
</svg>
